<svg width="165" height="44" viewBox="0 0 165 44" fill="none" xmlns="http://www.w3.org/2000/svg">
<path d="M55.1589 17.1698L40.0397 0L10.288 33.6445H0V35H9.0715H16.9613H17.1698L40.0397 9.00198L51.1619 21.7577L55.1589 26.3803L59.1907 21.7577L55.1589 17.1698Z" fill="#346D6D"/>
<path d="M29.0114 40V28.3636H31.4716V37.9716H36.4602V40H29.0114ZM38.0895 40V28.3636H45.9304V30.392H40.5497V33.1648H45.527V35.1932H40.5497V37.9716H45.9531V40H38.0895ZM49.892 40H47.2557L51.2727 28.3636H54.4432L58.4545 40H55.8182L52.9034 31.0227H52.8125L49.892 40ZM49.7273 35.4261H55.9545V37.3466H49.7273V35.4261ZM65.902 31.7102C65.8565 31.2519 65.6615 30.8958 65.3168 30.642C64.9721 30.3883 64.5043 30.2614 63.9134 30.2614C63.5118 30.2614 63.1728 30.3182 62.8963 30.4318C62.6198 30.5417 62.4077 30.6951 62.2599 30.892C62.116 31.089 62.044 31.3125 62.044 31.5625C62.0365 31.7708 62.08 31.9527 62.1747 32.108C62.2732 32.2633 62.4077 32.3977 62.5781 32.5114C62.7486 32.6212 62.9455 32.7178 63.169 32.8011C63.3925 32.8807 63.6312 32.9489 63.8849 33.0057L64.9304 33.2557C65.438 33.3693 65.9039 33.5208 66.3281 33.7102C66.7524 33.8996 67.1198 34.1326 67.4304 34.4091C67.741 34.6856 67.9815 35.0114 68.152 35.3864C68.3262 35.7614 68.4152 36.1913 68.419 36.6761C68.4152 37.3883 68.2334 38.0057 67.8736 38.5284C67.5175 39.0473 67.0024 39.4508 66.3281 39.7386C65.6577 40.0227 64.849 40.1648 63.902 40.1648C62.9626 40.1648 62.1444 40.0208 61.4474 39.733C60.7543 39.4451 60.2126 39.0189 59.8224 38.4545C59.4361 37.8864 59.2334 37.1837 59.2145 36.3466H61.5952C61.6217 36.7367 61.7334 37.0625 61.9304 37.3239C62.1312 37.5814 62.3982 37.7765 62.7315 37.9091C63.0687 38.0379 63.4493 38.1023 63.8736 38.1023C64.2902 38.1023 64.652 38.0417 64.9588 37.9205C65.2694 37.7992 65.5099 37.6307 65.6804 37.4148C65.8509 37.1989 65.9361 36.9508 65.9361 36.6705C65.9361 36.4091 65.8584 36.1894 65.7031 36.0114C65.5516 35.8333 65.3281 35.6818 65.0327 35.5568C64.741 35.4318 64.383 35.3182 63.9588 35.2159L62.6918 34.8977C61.7107 34.6591 60.9361 34.286 60.3679 33.7784C59.7997 33.2708 59.5175 32.5871 59.5213 31.7273C59.5175 31.0227 59.705 30.4072 60.0838 29.8807C60.4664 29.3542 60.991 28.9432 61.6577 28.6477C62.3243 28.3523 63.0819 28.2045 63.9304 28.2045C64.794 28.2045 65.5478 28.3523 66.1918 28.6477C66.8395 28.9432 67.3433 29.3542 67.7031 29.8807C68.063 30.4072 68.2486 31.017 68.2599 31.7102H65.902ZM70.0739 40V28.3636H77.9148V30.392H72.5341V33.1648H77.5114V35.1932H72.5341V37.9716H77.9375V40H70.0739ZM82.4901 40L79.1605 28.3636H81.848L83.7741 36.4489H83.8707L85.9957 28.3636H88.2969L90.4162 36.4659H90.5185L92.4446 28.3636H95.1321L91.8026 40H89.4048L87.1889 32.392H87.098L84.8878 40H82.4901ZM98.9091 28.3636V40H96.4489V28.3636H98.9091ZM100.49 30.392V28.3636H110.047V30.392H106.484V40H104.053V30.392H100.49ZM111.621 40V28.3636H114.081V33.1648H119.075V28.3636H121.53V40H119.075V35.1932H114.081V40H111.621Z" fill="black"/>
<path d="M123.558 40V28.3636H131.399V30.392H126.018V33.1648H130.996V35.1932H126.018V37.9716H131.422V40H123.558ZM135.361 40H132.724L136.741 28.3636H139.912L143.923 40H141.287L138.372 31.0227H138.281L135.361 40ZM135.196 35.4261H141.423V37.3466H135.196V35.4261ZM151.371 31.7102C151.325 31.2519 151.13 30.8958 150.786 30.642C150.441 30.3883 149.973 30.2614 149.382 30.2614C148.981 30.2614 148.642 30.3182 148.365 30.4318C148.089 30.5417 147.876 30.6951 147.729 30.892C147.585 31.089 147.513 31.3125 147.513 31.5625C147.505 31.7708 147.549 31.9527 147.643 32.108C147.742 32.2633 147.876 32.3977 148.047 32.5114C148.217 32.6212 148.414 32.7178 148.638 32.8011C148.861 32.8807 149.1 32.9489 149.354 33.0057L150.399 33.2557C150.907 33.3693 151.373 33.5208 151.797 33.7102C152.221 33.8996 152.589 34.1326 152.899 34.4091C153.21 34.6856 153.45 35.0114 153.621 35.3864C153.795 35.7614 153.884 36.1913 153.888 36.6761C153.884 37.3883 153.702 38.0057 153.342 38.5284C152.986 39.0473 152.471 39.4508 151.797 39.7386C151.126 40.0227 150.318 40.1648 149.371 40.1648C148.431 40.1648 147.613 40.0208 146.916 39.733C146.223 39.4451 145.681 39.0189 145.291 38.4545C144.905 37.8864 144.702 37.1837 144.683 36.3466H147.064C147.09 36.7367 147.202 37.0625 147.399 37.3239C147.6 37.5814 147.867 37.7765 148.2 37.9091C148.537 38.0379 148.918 38.1023 149.342 38.1023C149.759 38.1023 150.121 38.0417 150.428 37.9205C150.738 37.7992 150.979 37.6307 151.149 37.4148C151.32 37.1989 151.405 36.9508 151.405 36.6705C151.405 36.4091 151.327 36.1894 151.172 36.0114C151.02 35.8333 150.797 35.6818 150.501 35.5568C150.21 35.4318 149.852 35.3182 149.428 35.2159L148.161 34.8977C147.179 34.6591 146.405 34.286 145.837 33.7784C145.268 33.2708 144.986 32.5871 144.99 31.7273C144.986 31.0227 145.174 30.4072 145.553 29.8807C145.935 29.3542 146.46 28.9432 147.126 28.6477C147.793 28.3523 148.551 28.2045 149.399 28.2045C150.263 28.2045 151.017 28.3523 151.661 28.6477C152.308 28.9432 152.812 29.3542 153.172 29.8807C153.532 30.4072 153.717 31.017 153.729 31.7102H151.371ZM155.543 40V28.3636H163.384V30.392H158.003V33.1648H162.98V35.1932H158.003V37.9716H163.406V40H155.543Z" fill="#346D6D"/>
</svg>
