<svg width="28" height="28" viewBox="0 0 28 28" fill="none" xmlns="http://www.w3.org/2000/svg">
<rect x="1" y="1" width="26" height="26" stroke="black" stroke-width="2"/>
<path d="M7 6.5C6.72386 6.5 6.5 6.72386 6.5 7L6.5 11.5C6.5 11.7761 6.72386 12 7 12C7.27614 12 7.5 11.7761 7.5 11.5L7.5 7.5L11.5 7.5C11.7761 7.5 12 7.27614 12 7C12 6.72386 11.7761 6.5 11.5 6.5L7 6.5ZM20 20.5C20.2761 20.5 20.5 20.2761 20.5 20L20.5 15.5C20.5 15.2239 20.2761 15 20 15C19.7239 15 19.5 15.2239 19.5 15.5L19.5 19.5L15.5 19.5C15.2239 19.5 15 19.7239 15 20C15 20.2761 15.2239 20.5 15.5 20.5L20 20.5ZM6.64645 7.35355L19.6464 20.3536L20.3536 19.6464L7.35355 6.64645L6.64645 7.35355Z" fill="black"/>
</svg>
