<svg width="24" height="22" viewBox="0 0 24 22" fill="none" xmlns="http://www.w3.org/2000/svg">
<path d="M17.25 4.45214e-08C18.2021 -0.000146574 19.1186 0.361849 19.8136 1.01256C20.5086 1.66327 20.93 2.55397 20.9925 3.504L21 3.75V7.575C21.8038 7.73938 22.5315 8.1627 23.0717 8.78013C23.6119 9.39755 23.9348 10.175 23.991 10.9935L24 11.25V20.25C24.0003 20.4374 23.9305 20.6182 23.8042 20.7567C23.678 20.8952 23.5044 20.9814 23.3178 20.9983C23.1311 21.0152 22.9449 20.9617 22.7958 20.8482C22.6466 20.7347 22.5454 20.5694 22.512 20.385L22.5 20.25V16.5H1.5V20.25C1.50035 20.4374 1.43051 20.6182 1.30424 20.7567C1.17797 20.8952 1.00442 20.9814 0.817767 20.9983C0.631115 21.0152 0.444886 20.9617 0.295753 20.8482C0.146619 20.7347 0.0453904 20.5694 0.0119999 20.385L7.81713e-08 20.25V11.25C-0.000176363 10.3855 0.298338 9.54751 0.84502 8.87782C1.3917 8.20814 2.15298 7.7479 3 7.575V3.75C2.99985 2.79792 3.36185 1.88143 4.01256 1.18643C4.66327 0.491431 5.55397 0.0699565 6.504 0.00750022L6.75 4.45214e-08H17.25ZM20.25 9H3.75C3.19091 8.99999 2.65184 9.20813 2.23784 9.58387C1.82383 9.95961 1.56455 10.476 1.5105 11.0325L1.5 11.25V15H22.5V11.25C22.5 10.6909 22.2919 10.1518 21.9161 9.73784C21.5404 9.32383 21.024 9.06454 20.4675 9.0105L20.25 9ZM17.25 1.5H6.75C6.19068 1.50003 5.65141 1.70838 5.23737 2.08443C4.82333 2.46048 4.5642 2.97726 4.5105 3.534L4.5 3.75V7.5H6V6.75C6 6.55109 6.07902 6.36032 6.21967 6.21967C6.36032 6.07902 6.55109 6 6.75 6H10.5C10.6989 6 10.8897 6.07902 11.0303 6.21967C11.171 6.36032 11.25 6.55109 11.25 6.75V7.5H12.75V6.75C12.75 6.55109 12.829 6.36032 12.9697 6.21967C13.1103 6.07902 13.3011 6 13.5 6H17.25C17.4489 6 17.6397 6.07902 17.7803 6.21967C17.921 6.36032 18 6.55109 18 6.75V7.5H19.5V3.75C19.5 3.19091 19.2919 2.65184 18.9161 2.23784C18.5404 1.82383 18.024 1.56455 17.4675 1.5105L17.25 1.5Z" fill="black"/>
</svg>
