<svg width="66" height="51" viewBox="0 0 66 51" fill="none" xmlns="http://www.w3.org/2000/svg">
<path d="M14.7419 50.8973H14.7761C14.8788 50.9657 15.0156 50.9999 15.1524 50.9999C15.2208 50.9999 15.2892 50.9999 15.3576 50.9657L32.6997 46.2454L50.0417 50.9657C50.1101 50.9999 50.1786 50.9999 50.247 50.9999C50.3838 50.9999 50.4864 50.9657 50.6232 50.8973H50.6574L65.0236 42.1408C65.3315 41.9697 65.4683 41.5935 65.3657 41.2514L57.4301 13.34C57.3617 13.1005 57.1906 12.9295 56.9512 12.8269C56.7118 12.7243 56.4723 12.7585 56.2671 12.8611L48.3657 17.3078C47.9894 17.513 47.8526 18.0261 48.0578 18.4023C48.2631 18.7786 48.7419 18.9154 49.1524 18.7102L56.1987 14.7766L63.7238 41.1488L50.9311 48.9476L47.8868 24.6619C47.8184 24.2172 47.4079 23.9094 46.9975 23.9778C46.5528 24.0462 46.245 24.4224 46.3134 24.8671L49.2892 49.2212L33.3838 44.8088V40.4647C33.3838 40.02 33.1444 39.678 32.6997 39.678C32.255 39.678 32.0156 40.02 32.0156 40.4647V44.8088L16.1444 49.1186L19.1544 24.7987C19.2228 24.354 18.8808 23.9778 18.4361 23.9094C17.9914 23.8752 17.581 24.1488 17.5468 24.5935L14.5025 48.8792L1.74395 41.0804L9.2349 14.7082L16.2812 18.6418C16.6574 18.847 17.1363 18.7102 17.3757 18.3339C17.581 17.9577 17.4442 17.4788 17.0679 17.2394L9.13228 12.8269C8.92705 12.7243 8.65341 12.6901 8.44818 12.7927C8.20874 12.8953 8.03771 13.0663 7.9693 13.3058L0.0336897 41.2172C-0.068926 41.5593 0.0678949 41.9355 0.375742 42.1066L14.7419 50.8973Z" fill="#346D6D"/>
<path d="M32.1523 37.2495C32.2891 37.3863 32.4943 37.4547 32.6996 37.4547C32.9048 37.4547 33.0758 37.3863 33.2469 37.2495C33.7941 36.7706 46.279 25.3119 46.279 13.5453C46.279 5.95171 40.3273 0 32.7338 0C25.1402 0 19.1543 5.9175 19.1543 13.5111C19.1543 25.1066 31.6392 36.7364 32.1523 37.2495ZM32.6996 1.53924C39.5064 1.53924 44.6714 6.67002 44.6714 13.5111C44.6714 23.2254 35.1281 33.1791 32.6996 35.5392C30.3052 33.1791 20.7277 23.0885 20.7277 13.5111C20.7277 6.70423 25.8927 1.53924 32.6996 1.53924Z" fill="#346D6D"/>
<path d="M39.8828 13.511C39.8828 9.54317 36.6675 6.32788 32.6997 6.32788C28.7319 6.32788 25.5166 9.54317 25.5166 13.511C25.5166 17.4788 28.7319 20.6941 32.6997 20.6941C36.6675 20.6941 39.8828 17.4788 39.8828 13.511ZM32.6997 19.0864C29.6212 19.0864 27.1242 16.5894 27.1242 13.511C27.1242 10.4325 29.6212 7.93553 32.6997 7.93553C35.7782 7.93553 38.2752 10.4325 38.2752 13.511C38.2752 16.5894 35.7782 19.0864 32.6997 19.0864Z" fill="#346D6D"/>
</svg>
