<svg width="24" height="28" viewBox="0 0 24 28" fill="none" xmlns="http://www.w3.org/2000/svg">
<path d="M0 27.6V2.30773C0 1.68106 0.227961 1.13978 0.683882 0.683882C1.13978 0.227961 1.68106 0 2.30773 0H21.6923C22.3189 0 22.8602 0.227961 23.3161 0.683882C23.772 1.13978 24 1.68106 24 2.30773V27.6H22.1846V24.2154H1.81537V27.6H0ZM1.81537 12.5846H11.0923V1.81537H2.30773C2.16413 1.81537 2.04617 1.86153 1.95385 1.95385C1.86153 2.04617 1.81537 2.16413 1.81537 2.30773V12.5846ZM12.9077 6.29234H22.1846V2.30773C22.1846 2.16413 22.1385 2.04617 22.0462 1.95385C21.9538 1.86153 21.8359 1.81537 21.6923 1.81537H12.9077V6.29234ZM12.9077 12.5846H22.1846V8.10771H12.9077V12.5846ZM9.49231 19.3077H14.5077V17.4923H9.49231V19.3077ZM1.81537 14.4V22.4H22.1846V14.4H1.81537Z" fill="black"/>
</svg>
