<svg width="171" height="166" viewBox="0 0 171 166" fill="none" xmlns="http://www.w3.org/2000/svg">
<circle cx="3" cy="3" r="3" fill="#346D6D"/>
<circle cx="18" cy="3" r="3" fill="#346D6D"/>
<circle cx="33" cy="3" r="3" fill="#346D6D"/>
<circle cx="48" cy="3" r="3" fill="#346D6D"/>
<circle cx="63" cy="3" r="3" fill="#346D6D"/>
<circle cx="78" cy="3" r="3" fill="#346D6D"/>
<circle cx="93" cy="3" r="3" fill="#346D6D"/>
<circle cx="108" cy="3" r="3" fill="#346D6D"/>
<circle cx="123" cy="3" r="3" fill="#346D6D"/>
<circle cx="138" cy="3" r="3" fill="#346D6D"/>
<circle cx="153" cy="3" r="3" fill="#346D6D"/>
<circle cx="168" cy="3" r="3" fill="#346D6D"/>
<circle cx="3" cy="19" r="3" fill="#346D6D"/>
<circle cx="18" cy="19" r="3" fill="#346D6D"/>
<circle cx="33" cy="19" r="3" fill="#346D6D"/>
<circle cx="48" cy="19" r="3" fill="#346D6D"/>
<circle cx="63" cy="19" r="3" fill="#346D6D"/>
<circle cx="78" cy="19" r="3" fill="#346D6D"/>
<circle cx="93" cy="19" r="3" fill="#346D6D"/>
<circle cx="108" cy="19" r="3" fill="#346D6D"/>
<circle cx="123" cy="19" r="3" fill="#346D6D"/>
<circle cx="138" cy="19" r="3" fill="#346D6D"/>
<circle cx="153" cy="19" r="3" fill="#346D6D"/>
<circle cx="168" cy="19" r="3" fill="#346D6D"/>
<circle cx="3" cy="35" r="3" fill="#346D6D"/>
<circle cx="18" cy="35" r="3" fill="#346D6D"/>
<circle cx="33" cy="35" r="3" fill="#346D6D"/>
<circle cx="48" cy="35" r="3" fill="#346D6D"/>
<circle cx="63" cy="35" r="3" fill="#346D6D"/>
<circle cx="78" cy="35" r="3" fill="#346D6D"/>
<circle cx="93" cy="35" r="3" fill="#346D6D"/>
<circle cx="108" cy="35" r="3" fill="#346D6D"/>
<circle cx="123" cy="35" r="3" fill="#346D6D"/>
<circle cx="138" cy="35" r="3" fill="#346D6D"/>
<circle cx="153" cy="35" r="3" fill="#346D6D"/>
<circle cx="168" cy="35" r="3" fill="#346D6D"/>
<circle cx="3" cy="51" r="3" fill="#346D6D"/>
<circle cx="18" cy="51" r="3" fill="#346D6D"/>
<circle cx="33" cy="51" r="3" fill="#346D6D"/>
<circle cx="48" cy="51" r="3" fill="#346D6D"/>
<circle cx="63" cy="51" r="3" fill="#346D6D"/>
<circle cx="78" cy="51" r="3" fill="#346D6D"/>
<circle cx="93" cy="51" r="3" fill="#346D6D"/>
<circle cx="108" cy="51" r="3" fill="#346D6D"/>
<circle cx="123" cy="51" r="3" fill="#346D6D"/>
<circle cx="138" cy="51" r="3" fill="#346D6D"/>
<circle cx="153" cy="51" r="3" fill="#346D6D"/>
<circle cx="168" cy="51" r="3" fill="#346D6D"/>
<circle cx="3" cy="67" r="3" fill="#346D6D"/>
<circle cx="18" cy="67" r="3" fill="#346D6D"/>
<circle cx="33" cy="67" r="3" fill="#346D6D"/>
<circle cx="48" cy="67" r="3" fill="#346D6D"/>
<circle cx="63" cy="67" r="3" fill="#346D6D"/>
<circle cx="78" cy="67" r="3" fill="#346D6D"/>
<circle cx="93" cy="67" r="3" fill="#346D6D"/>
<circle cx="108" cy="67" r="3" fill="#346D6D"/>
<circle cx="123" cy="67" r="3" fill="#346D6D"/>
<circle cx="138" cy="67" r="3" fill="#346D6D"/>
<circle cx="153" cy="67" r="3" fill="#346D6D"/>
<circle cx="168" cy="67" r="3" fill="#346D6D"/>
<circle cx="3" cy="83" r="3" fill="#346D6D"/>
<circle cx="18" cy="83" r="3" fill="#346D6D"/>
<circle cx="33" cy="83" r="3" fill="#346D6D"/>
<circle cx="48" cy="83" r="3" fill="#346D6D"/>
<circle cx="63" cy="83" r="3" fill="#346D6D"/>
<circle cx="78" cy="83" r="3" fill="#346D6D"/>
<circle cx="93" cy="83" r="3" fill="#346D6D"/>
<circle cx="108" cy="83" r="3" fill="#346D6D"/>
<circle cx="123" cy="83" r="3" fill="#346D6D"/>
<circle cx="138" cy="83" r="3" fill="#346D6D"/>
<circle cx="153" cy="83" r="3" fill="#346D6D"/>
<circle cx="168" cy="83" r="3" fill="#346D6D"/>
<circle cx="3" cy="99" r="3" fill="#346D6D"/>
<circle cx="18" cy="99" r="3" fill="#346D6D"/>
<circle cx="33" cy="99" r="3" fill="#346D6D"/>
<circle cx="48" cy="99" r="3" fill="#346D6D"/>
<circle cx="63" cy="99" r="3" fill="#346D6D"/>
<circle cx="78" cy="99" r="3" fill="#346D6D"/>
<circle cx="93" cy="99" r="3" fill="#346D6D"/>
<circle cx="108" cy="99" r="3" fill="#346D6D"/>
<circle cx="123" cy="99" r="3" fill="#346D6D"/>
<circle cx="138" cy="99" r="3" fill="#346D6D"/>
<circle cx="153" cy="99" r="3" fill="#346D6D"/>
<circle cx="168" cy="99" r="3" fill="#346D6D"/>
<circle cx="3" cy="115" r="3" fill="#346D6D"/>
<circle cx="18" cy="115" r="3" fill="#346D6D"/>
<circle cx="33" cy="115" r="3" fill="#346D6D"/>
<circle cx="48" cy="115" r="3" fill="#346D6D"/>
<circle cx="63" cy="115" r="3" fill="#346D6D"/>
<circle cx="78" cy="115" r="3" fill="#346D6D"/>
<circle cx="93" cy="115" r="3" fill="#346D6D"/>
<circle cx="108" cy="115" r="3" fill="#346D6D"/>
<circle cx="123" cy="115" r="3" fill="#346D6D"/>
<circle cx="138" cy="115" r="3" fill="#346D6D"/>
<circle cx="153" cy="115" r="3" fill="#346D6D"/>
<circle cx="168" cy="115" r="3" fill="#346D6D"/>
<circle cx="3" cy="131" r="3" fill="#346D6D"/>
<circle cx="18" cy="131" r="3" fill="#346D6D"/>
<circle cx="33" cy="131" r="3" fill="#346D6D"/>
<circle cx="48" cy="131" r="3" fill="#346D6D"/>
<circle cx="63" cy="131" r="3" fill="#346D6D"/>
<circle cx="78" cy="131" r="3" fill="#346D6D"/>
<circle cx="93" cy="131" r="3" fill="#346D6D"/>
<circle cx="108" cy="131" r="3" fill="#346D6D"/>
<circle cx="123" cy="131" r="3" fill="#346D6D"/>
<circle cx="138" cy="131" r="3" fill="#346D6D"/>
<circle cx="153" cy="131" r="3" fill="#346D6D"/>
<circle cx="168" cy="131" r="3" fill="#346D6D"/>
<circle cx="3" cy="147" r="3" fill="#346D6D"/>
<circle cx="18" cy="147" r="3" fill="#346D6D"/>
<circle cx="33" cy="147" r="3" fill="#346D6D"/>
<circle cx="48" cy="147" r="3" fill="#346D6D"/>
<circle cx="63" cy="147" r="3" fill="#346D6D"/>
<circle cx="78" cy="147" r="3" fill="#346D6D"/>
<circle cx="93" cy="147" r="3" fill="#346D6D"/>
<circle cx="108" cy="147" r="3" fill="#346D6D"/>
<circle cx="123" cy="147" r="3" fill="#346D6D"/>
<circle cx="138" cy="147" r="3" fill="#346D6D"/>
<circle cx="153" cy="147" r="3" fill="#346D6D"/>
<circle cx="168" cy="147" r="3" fill="#346D6D"/>
<circle cx="3" cy="163" r="3" fill="#346D6D"/>
<circle cx="18" cy="163" r="3" fill="#346D6D"/>
<circle cx="33" cy="163" r="3" fill="#346D6D"/>
<circle cx="48" cy="163" r="3" fill="#346D6D"/>
<circle cx="63" cy="163" r="3" fill="#346D6D"/>
<circle cx="78" cy="163" r="3" fill="#346D6D"/>
<circle cx="93" cy="163" r="3" fill="#346D6D"/>
<circle cx="108" cy="163" r="3" fill="#346D6D"/>
<circle cx="123" cy="163" r="3" fill="#346D6D"/>
<circle cx="138" cy="163" r="3" fill="#346D6D"/>
<circle cx="153" cy="163" r="3" fill="#346D6D"/>
<circle cx="168" cy="163" r="3" fill="#346D6D"/>
</svg>
