<svg width="45" height="51" viewBox="0 0 45 51" fill="none" xmlns="http://www.w3.org/2000/svg">
<path d="M2.85289 50.9999H42.5776C43.9601 50.9999 44.974 49.8324 44.974 48.4806V3.96312C44.974 2.58059 43.9601 1.53601 42.5776 1.53601H36.2179C35.7878 1.53601 35.4192 1.87396 35.4192 2.30408C35.4192 2.7342 35.7878 3.07216 36.2179 3.07216H42.5776C43.0692 3.07216 43.4378 3.47155 43.4378 3.96312V48.4499C43.4378 48.9414 43.0692 49.1258 42.5776 49.1258H2.85289C2.36132 49.1258 1.96193 48.9414 1.96193 48.4499V3.96312C1.96193 3.47155 2.36132 3.07216 2.85289 3.07216H9.21253C9.64265 3.07216 10.0113 2.7342 10.0113 2.30408C10.0113 1.87396 9.64265 1.53601 9.21253 1.53601H2.85289C1.47036 1.53601 0.425781 2.58059 0.425781 3.96312V48.4499C0.425781 49.8324 1.47036 50.9999 2.85289 50.9999Z" fill="#346D6D"/>
<path d="M9.21288 7.98805C9.643 7.98805 10.0117 7.6501 10.0117 7.21998C10.0117 6.78986 9.643 6.4519 9.21288 6.4519H6.0177C5.58758 6.4519 5.3418 6.69769 5.3418 7.15853V45.2856C5.3418 45.7158 5.58758 46.0844 6.0177 46.0844H39.3828C39.8129 46.0844 40.0587 45.7158 40.0587 45.2856V7.15853C40.0587 6.72841 39.8436 6.4519 39.3828 6.4519H36.2183C35.7882 6.4519 35.4195 6.78986 35.4195 7.21998C35.4195 7.6501 35.7882 7.98805 36.2183 7.98805H38.5225V44.5483H6.87794V7.98805H9.21288Z" fill="#346D6D"/>
<path d="M14.7737 11.0602H30.6574C32.593 11.0602 33.914 9.86205 33.914 7.95723V0.798795C33.914 0.368675 33.4839 0 33.0538 0H12.3773C11.9472 0 11.4863 0.368675 11.4863 0.798795V7.95723C11.4863 9.86205 12.8381 11.0602 14.7737 11.0602ZM13.3297 1.53614H32.3779V7.95723C32.3779 9.00181 31.702 9.5241 30.6574 9.5241H14.7737C13.7291 9.5241 13.3297 9.00181 13.3297 7.95723V1.53614Z" fill="#346D6D"/>
<path d="M13.9746 25.5001H31.4559C31.886 25.5001 32.2547 25.1622 32.2547 24.7321C32.2547 24.3019 31.886 23.964 31.4559 23.964H13.9746C13.5445 23.964 13.1758 24.3019 13.1758 24.7321C13.1758 25.1622 13.5445 25.5001 13.9746 25.5001Z" fill="#346D6D"/>
<path d="M13.9746 19.0481H31.4559C31.886 19.0481 32.2547 18.7102 32.2547 18.28C32.2547 17.8499 31.886 17.512 31.4559 17.512H13.9746C13.5445 17.512 13.1758 17.8499 13.1758 18.28C13.1758 18.7102 13.5445 19.0481 13.9746 19.0481Z" fill="#346D6D"/>
<path d="M13.9746 31.6445H31.4559C31.886 31.6445 32.2547 31.3066 32.2547 30.8765C32.2547 30.4464 31.886 30.1084 31.4559 30.1084H13.9746C13.5445 30.1084 13.1758 30.4464 13.1758 30.8765C13.1758 31.3066 13.5445 31.6445 13.9746 31.6445Z" fill="#346D6D"/>
<path d="M13.9746 38.0964H31.4559C31.886 38.0964 32.2547 37.7585 32.2547 37.3284C32.2547 36.8983 31.886 36.5603 31.4559 36.5603H13.9746C13.5445 36.5603 13.1758 36.8983 13.1758 37.3284C13.1758 37.7585 13.5445 38.0964 13.9746 38.0964Z" fill="#346D6D"/>
</svg>
