<svg width="17" height="24" viewBox="0 0 17 24" fill="none" xmlns="http://www.w3.org/2000/svg">
<path d="M10.8244 24L1.66966 14.5059V12.5294H5.99998C7.41356 12.5294 8.67601 12.0783 9.78733 11.176C10.8987 10.2738 11.5005 8.97827 11.5928 7.28956H0V5.6878H11.4842C11.2054 4.50408 10.5557 3.52715 9.53484 2.75701C8.51404 1.98686 7.33575 1.60179 5.99998 1.60179H0V0H16.2353V1.60179H10.542C11.2009 2.04523 11.7592 2.64976 12.2172 3.41539C12.6751 4.18099 12.9819 4.93846 13.1375 5.6878H16.2353V7.28956H13.181C13.0832 9.39456 12.3366 11.0611 10.9412 12.2891C9.54569 13.5172 7.89862 14.1312 5.99998 14.1312H3.55377L13.0343 24H10.8244Z" fill="black"/>
</svg>
