<svg width="54" height="51" viewBox="0 0 54 51" fill="none" xmlns="http://www.w3.org/2000/svg">
<path d="M18.5613 51L13.95 43.1375L4.95596 41.3153L5.86433 32.2788L0.03125 25.5L5.86433 18.7372L4.95596 9.75376L13.95 7.87844L18.5613 0L26.7 3.59125L34.8387 0L39.5191 7.87844L48.4972 9.75376L47.5356 18.7372L53.3687 25.5L47.5356 32.2788L48.4972 41.3153L39.5191 43.1375L34.8387 51L26.7 47.4088L18.5613 51ZM19.5228 48.2003L26.7 45.2519L33.9781 48.2003L38.2865 41.4534L46.1012 39.5941L45.3788 31.535L50.7071 25.5L45.3788 19.4331L46.1012 11.3209L38.2865 9.54657L33.9462 2.79972L26.7 5.74814L19.4218 2.79972L15.1135 9.54657L7.29876 11.3209L8.02122 19.4331L2.69285 25.5L8.02122 31.535L7.29876 39.626L15.1135 41.4534L19.5228 48.2003ZM23.7834 33.0916L37.495 19.465L35.8747 18.0147L23.7834 30.0741L17.5413 23.6618L15.905 25.2822L23.7834 33.0916Z" fill="#346D6D"/>
</svg>
